<svg aria-hidden="true" style="position: absolute; width: 0; height: 0; overflow: hidden;" version="1.1" xmlns="http://www.w3.org/2000/svg" xmlns:xlink="http://www.w3.org/1999/xlink">
  <defs>
    <symbol id="icon-key" viewBox="0 0 58 58">
      <path fill="currentColor" d="M41 0c-9.374 0-17 7.626-17 17 0 3.195.902 6.175 2.441 8.731L.586 51.586a2 2 0 1 0 2.828 2.828L7 50.828l6.586 6.586c.391.391.902.586 1.414.586s1.023-.195 1.414-.586a2 2 0 0 0 0-2.828L9.828 48 12 45.828l4.586 4.586c.391.391.902.586 1.414.586s1.023-.195 1.414-.586a2 2 0 0 0 0-2.828L14.828 43 17 40.828l6.586 6.586c.391.391.902.586 1.414.586s1.023-.195 1.414-.586a2 2 0 0 0 0-2.828L19.828 38l9.075-9.075C31.988 32.054 36.269 34 41 34c9.374 0 17-7.626 17-17S50.374 0 41 0zm0 30c-7.168 0-13-5.832-13-13S33.832 4 41 4s13 5.832 13 13-5.832 13-13 13z"/>
    </symbol>

    <symbol id="icon-settings" viewBox="0 0 54 54">
      <path fill="currentColor" d="M51.22 21h-5.052c-.812 0-1.481-.447-1.792-1.197s-.153-1.54.42-2.114l3.572-3.571a2.763 2.763 0 0 0 .814-1.966c0-.743-.289-1.441-.814-1.967l-4.553-4.553c-1.05-1.05-2.881-1.052-3.933 0l-3.571 3.571c-.574.573-1.366.733-2.114.421A1.885 1.885 0 0 1 33 7.832V2.78A2.783 2.783 0 0 0 30.22 0h-6.44A2.783 2.783 0 0 0 21 2.78v5.052c0 .812-.447 1.481-1.197 1.792-.748.313-1.54.152-2.114-.421l-3.571-3.571c-1.052-1.052-2.883-1.05-3.933 0l-4.553 4.553a2.764 2.764 0 0 0-.814 1.967c0 .742.289 1.44.814 1.966l3.572 3.571c.573.574.73 1.364.42 2.114S8.644 21 7.832 21H2.78A2.783 2.783 0 0 0 0 23.78v6.439A2.783 2.783 0 0 0 2.78 33h5.052c.812 0 1.481.447 1.792 1.197s.153 1.54-.42 2.114l-3.572 3.571a2.763 2.763 0 0 0-.814 1.966c0 .743.289 1.441.814 1.967l4.553 4.553c1.051 1.051 2.881 1.053 3.933 0l3.571-3.572a1.887 1.887 0 0 1 2.114-.42c.75.311 1.197.98 1.197 1.792v5.052A2.783 2.783 0 0 0 23.78 54h6.439a2.783 2.783 0 0 0 2.78-2.78v-5.052c0-.812.447-1.481 1.197-1.792a1.885 1.885 0 0 1 2.114.42l3.571 3.572c1.052 1.052 2.883 1.05 3.933 0l4.553-4.553a2.764 2.764 0 0 0 .814-1.967c0-.742-.289-1.44-.814-1.966l-3.572-3.571c-.573-.574-.73-1.364-.42-2.114S45.356 33 46.168 33h5.052A2.783 2.783 0 0 0 54 30.22v-6.44A2.783 2.783 0 0 0 51.22 21zm.78 9.22c0 .43-.35.78-.78.78h-5.052a3.879 3.879 0 0 0-3.64 2.432 3.877 3.877 0 0 0 .854 4.294l3.572 3.571a.78.78 0 0 1 0 1.104l-4.553 4.553a.78.78 0 0 1-1.104 0l-3.571-3.572c-1.149-1.149-2.794-1.474-4.294-.854A3.879 3.879 0 0 0 31 46.168v5.052c0 .43-.35.78-.78.78h-6.44c-.43 0-.78-.35-.78-.78v-5.052a3.879 3.879 0 0 0-2.432-3.64 3.985 3.985 0 0 0-1.533-.311c-1.014 0-1.997.4-2.761 1.164l-3.571 3.572a.78.78 0 0 1-1.104 0L7.046 42.4a.78.78 0 0 1 0-1.104l3.572-3.571a3.879 3.879 0 0 0 .854-4.294A3.88 3.88 0 0 0 7.832 31H2.78c-.43 0-.78-.35-.78-.78v-6.44c0-.43.35-.78.78-.78h5.052a3.879 3.879 0 0 0 3.64-2.432 3.877 3.877 0 0 0-.854-4.294l-3.572-3.571a.78.78 0 0 1 0-1.104l4.553-4.553a.78.78 0 0 1 1.104 0l3.571 3.571a3.88 3.88 0 0 0 4.294.854A3.876 3.876 0 0 0 23 7.832V2.78c0-.43.35-.78.78-.78h6.439c.431 0 .781.35.781.78v5.052c0 1.624.932 3.019 2.432 3.64a3.878 3.878 0 0 0 4.294-.854l3.571-3.571a.78.78 0 0 1 1.104 0l4.553 4.553a.78.78 0 0 1 0 1.104l-3.572 3.571a3.879 3.879 0 0 0-.854 4.294 3.879 3.879 0 0 0 3.64 2.432h5.052a.78.78 0 0 1 .78.779v6.44z"/>
      <path fill="currentColor" d="M27 18c-4.963 0-9 4.037-9 9s4.037 9 9 9 9-4.037 9-9-4.037-9-9-9zm0 16c-3.859 0-7-3.141-7-7s3.141-7 7-7 7 3.141 7 7-3.141 7-7 7z"/>
    </symbol>

    <symbol id="icon-lock" viewBox="0 0 54 54">
      <path fill="currentColor" d="M43 20.113V14.5C43 6.505 35.822 0 27 0S11 6.505 11 14.5v5.613c-3.401.586-6 3.55-6 7.117v19.542C5 50.757 8.243 54 12.229 54h29.542C45.757 54 49 50.757 49 46.771V27.229c0-3.566-2.599-6.53-6-7.116zM13 14.5C13 7.607 19.28 2 27 2s14 5.607 14 12.5V20H13v-5.5zm34 32.271A5.235 5.235 0 0 1 41.771 52H12.229A5.235 5.235 0 0 1 7 46.771V27.229A5.235 5.235 0 0 1 12.229 22h29.542A5.235 5.235 0 0 1 47 27.229v19.542z"/>
      <path fill="currentColor" d="M27 28c-2.206 0-4 1.794-4 4v6c0 2.206 1.794 4 4 4s4-1.794 4-4v-6c0-2.206-1.794-4-4-4zm2 10c0 1.103-.897 2-2 2s-2-.897-2-2v-6c0-1.103.897-2 2-2s2 .897 2 2v6z"/>
    </symbol>

    <symbol id="icon-edit" viewBox="0 0 55.25 55.25">
      <path fill="currentColor" d="M52.618 2.631c-3.51-3.508-9.219-3.508-12.729 0L3.827 38.693c-.017.017-.027.038-.042.056-.021.024-.039.05-.058.076a.972.972 0 0 0-.125.239c-.009.026-.022.049-.029.075l-.012.03-3.535 14.85a.991.991 0 0 0-.022.202c0 .013-.004.025-.004.038a.995.995 0 0 0 .095.403c.049.107.11.21.196.296a1.006 1.006 0 0 0 .938.266l14.85-3.535c.027-.006.051-.021.077-.03a.985.985 0 0 0 .3-.162c.024-.019.049-.033.072-.054.008-.008.018-.012.026-.02L52.617 15.36c3.51-3.51 3.51-9.22.001-12.729zm-1.414 1.414c2.488 2.489 2.7 6.397.65 9.137l-9.787-9.787c2.741-2.05 6.649-1.838 9.137.65zm-4.95 14.85l-9.9-9.9 1.414-1.414 9.9 9.9-1.414 1.414zM4.961 50.288a.999.999 0 0 0-1.414 0l-.757.757 2.554-10.728 4.422-.491-.569 5.122c-.004.038.01.073.01.11 0 .038-.014.072-.01.11.004.033.021.06.028.092a1.016 1.016 0 0 0 .245.473c.048.051.1.094.157.134.045.031.088.06.138.084.066.031.135.049.207.066.038.009.069.03.108.035a.982.982 0 0 0 .109.006h.004a.995.995 0 0 0 .109-.006l5.122-.569-.491 4.422-10.729 2.554.757-.757a1 1 0 0 0 0-1.414zm12.55-5.479L39.889 22.43a.999.999 0 1 0-1.414-1.414L16.097 43.395l-4.773.53.53-4.773 22.38-22.378a.999.999 0 1 0-1.414-1.414L10.44 37.738l-3.183.354L34.94 10.409l9.9 9.9-27.683 27.683.354-3.183zm31.571-28.742l-9.9-9.9 1.415-1.415 9.9 9.9-1.415 1.415z"/>
    </symbol>

    <symbol id="icon-copy" viewBox="0 0 60 60">
      <path fill="currentColor" d="M45 25H20a1 1 0 1 0 0 2h25a1 1 0 1 0 0-2zM20 19h10a1 1 0 1 0 0-2H20a1 1 0 1 0 0 2zM45 33H20a1 1 0 1 0 0 2h25a1 1 0 1 0 0-2zM45 41H20a1 1 0 1 0 0 2h25a1 1 0 1 0 0-2zM45 49H20a1 1 0 1 0 0 2h25a1 1 0 1 0 0-2z"/>
      <path fill="currentColor" d="M49 14.586V0H6v55h5v5h43V19.586l-5-5zm-9-6.172l9 9L50.586 19H40V8.414zM8 53V2h39v10.586L39.414 5H11v48H8zm5 5V7h25v14h14v37H13z"/>
    </symbol>

    <symbol id="icon-internet" viewBox="0 0 58 58">
      <path fill="currentColor" d="M50.688 48.222C55.232 43.101 58 36.369 58 29c0-7.667-2.996-14.643-7.872-19.834v-.001c-.004-.006-.01-.008-.013-.013C45.036 3.753 37.92.297 30.005.026l-.001-.001-.565-.015C29.293.005 29.147 0 29 0s-.293.005-.439.01l-.563.015-.001.001c-7.915.271-15.031 3.727-20.11 9.126-.004.005-.01.007-.013.013l-.001.002C2.996 14.357 0 21.333 0 29c0 7.369 2.768 14.101 7.312 19.222.006.009.006.019.013.028.018.025.044.037.063.06 5.106 5.708 12.432 9.385 20.608 9.665l.001.001.563.015c.147.004.293.009.44.009s.293-.005.439-.01l.563-.015.001-.001c8.185-.281 15.519-3.965 20.625-9.685.013-.017.034-.022.046-.04.008-.008.008-.018.014-.027zM2.025 30h12.003a36.956 36.956 0 0 0 2.415 12.217 36.873 36.873 0 0 0-8.111 4.131A26.875 26.875 0 0 1 2.025 30zm6.853-18.977a36.783 36.783 0 0 0 7.9 3.882A36.927 36.927 0 0 0 14.028 28H2.025a26.882 26.882 0 0 1 6.853-16.977zM55.975 28H43.972a36.927 36.927 0 0 0-2.75-13.095 36.783 36.783 0 0 0 7.9-3.882A26.882 26.882 0 0 1 55.975 28zM28 14.963a34.958 34.958 0 0 1-8.471-1.283A34.988 34.988 0 0 1 28 2.644v12.319zm0 2V28H16.028a34.926 34.926 0 0 1 2.666-12.475A36.948 36.948 0 0 0 28 16.963zm2 0c3.179-.085 6.3-.566 9.307-1.438A34.926 34.926 0 0 1 41.973 28H30V16.963zm0-2V2.644a34.988 34.988 0 0 1 8.471 11.036A34.958 34.958 0 0 1 30 14.963zm10.409-1.891a36.93 36.93 0 0 0-7.888-10.835 26.922 26.922 0 0 1 15.183 7.318 34.782 34.782 0 0 1-7.295 3.517zm-22.818 0a34.75 34.75 0 0 1-7.294-3.517A26.92 26.92 0 0 1 25.48 2.237a36.915 36.915 0 0 0-7.889 10.835zM16.028 30H28v10.038a36.883 36.883 0 0 0-9.661 1.541A34.924 34.924 0 0 1 16.028 30zM28 42.038v13.318a34.97 34.97 0 0 1-8.884-11.917A34.867 34.867 0 0 1 28 42.038zm2 13.318V42.038c3.039.085 6.017.556 8.884 1.4A34.964 34.964 0 0 1 30 55.356zm0-15.318V30h11.972a34.91 34.91 0 0 1-2.312 11.58A36.828 36.828 0 0 0 30 40.038zM43.972 30h12.003a26.87 26.87 0 0 1-6.307 16.348 36.873 36.873 0 0 0-8.111-4.131A36.93 36.93 0 0 0 43.972 30zM9.691 47.846a34.85 34.85 0 0 1 7.517-3.781 36.9 36.9 0 0 0 8.271 11.698c-6.151-.805-11.656-3.685-15.788-7.917zm22.83 7.917a36.878 36.878 0 0 0 8.271-11.698 34.874 34.874 0 0 1 7.517 3.781c-4.132 4.232-9.637 7.112-15.788 7.917z"/>
    </symbol>

    <symbol id="icon-database" viewBox="0 0 55 55">
      <path fill="currentColor" d="M52.354 8.51C51.196 4.22 42.577 0 27.5 0S3.803 4.22 2.646 8.51A.98.98 0 0 0 2.5 9v37a.94.94 0 0 0 .117.451C3.798 51.346 14.364 55 27.5 55c13.106 0 23.655-3.639 24.875-8.516A.988.988 0 0 0 52.5 46V9a.98.98 0 0 0-.146-.49zm-1.933 25.475a2.46 2.46 0 0 1-.259.66 3.39 3.39 0 0 1-.45.646 5.42 5.42 0 0 1-.363.392c-.081.079-.17.157-.26.236a8.234 8.234 0 0 1-.526.426c-.082.061-.17.12-.257.18-.226.156-.462.311-.721.463-.068.041-.141.08-.212.12a16.52 16.52 0 0 1-.945.497c-.043.021-.088.041-.132.061-.375.177-.767.351-1.186.519l-.036.014c-2.271.907-5.176 1.67-8.561 2.17l-.051.007a55.03 55.03 0 0 1-2.026.259c-.113.012-.232.02-.346.032-.605.063-1.217.121-1.847.167-.288.021-.59.031-.883.049-.474.028-.943.059-1.429.076a69.019 69.019 0 0 1-4.863-.003c-.486-.017-.955-.049-1.429-.076-.293-.017-.595-.028-.883-.049a59.764 59.764 0 0 1-1.847-.167c-.114-.012-.233-.02-.346-.032a57.277 57.277 0 0 1-2.026-.259l-.051-.007c-3.385-.5-6.29-1.263-8.561-2.17a21.248 21.248 0 0 1-1.222-.533c-.043-.021-.089-.041-.132-.061a15.908 15.908 0 0 1-.945-.497c-.07-.04-.144-.079-.212-.12a11.544 11.544 0 0 1-.721-.463c-.086-.06-.175-.119-.257-.18a8.234 8.234 0 0 1-.526-.426c-.089-.078-.179-.156-.26-.236a5.22 5.22 0 0 1-.363-.392 3.729 3.729 0 0 1-.45-.646 2.423 2.423 0 0 1-.259-.66c-.037-.159-.078-.321-.078-.482 0-.113.013-.226.031-.338a.997.997 0 0 0-.031-.445v-7.424c.028.026.063.051.092.077.218.192.44.383.69.567C9.049 28.786 16.582 31 27.5 31c10.872 0 18.386-2.196 22.169-5.028.302-.22.574-.447.83-.678l.001-.001v7.424a.997.997 0 0 0-.031.445c.019.112.031.225.031.338 0 .161-.041.323-.079.485zm.079-20.692v7.424a.997.997 0 0 0-.031.445c.019.112.031.225.031.338 0 .161-.041.323-.079.485a2.46 2.46 0 0 1-.259.66 3.39 3.39 0 0 1-.45.646 5.42 5.42 0 0 1-.363.392c-.081.079-.17.157-.26.236a8.234 8.234 0 0 1-.526.426c-.082.061-.17.12-.257.18-.226.156-.462.311-.721.463-.068.041-.141.08-.212.12a16.52 16.52 0 0 1-.945.497c-.043.021-.088.041-.132.061-.375.177-.767.351-1.186.519l-.036.014c-2.271.907-5.176 1.67-8.561 2.17l-.051.007a55.03 55.03 0 0 1-2.026.259c-.113.012-.232.02-.346.032-.605.063-1.217.121-1.847.167-.288.021-.59.031-.883.049-.474.028-.943.059-1.429.076a69.019 69.019 0 0 1-4.863-.003c-.486-.017-.955-.049-1.429-.076-.293-.017-.595-.028-.883-.049a59.764 59.764 0 0 1-1.847-.167c-.114-.012-.233-.02-.346-.032a57.277 57.277 0 0 1-2.026-.259l-.051-.007c-3.385-.5-6.29-1.263-8.561-2.17a21.248 21.248 0 0 1-1.222-.533c-.043-.021-.089-.041-.132-.061a15.908 15.908 0 0 1-.945-.497c-.07-.04-.144-.079-.212-.12a11.544 11.544 0 0 1-.721-.463c-.086-.06-.175-.119-.257-.18a8.234 8.234 0 0 1-.526-.426c-.089-.078-.179-.156-.26-.236a5.22 5.22 0 0 1-.363-.392 3.729 3.729 0 0 1-.45-.646 2.423 2.423 0 0 1-.259-.66c-.037-.159-.078-.321-.078-.482 0-.113.013-.226.031-.338a.997.997 0 0 0-.031-.445v-7.424c.12.109.257.216.387.324.072.06.139.12.215.18.3.236.624.469.975.696.073.047.155.093.231.14a17.11 17.11 0 0 0 1.299.731c.365.186.748.367 1.151.542.066.029.126.059.193.087.469.199.967.389 1.485.573.143.051.293.099.44.149.412.139.838.272 1.279.401.159.046.315.094.478.138.585.162 1.189.316 1.823.458.087.02.181.036.269.055a45.634 45.634 0 0 0 2.348.445c.567.093 1.151.178 1.75.256.154.02.301.043.457.062.744.09 1.514.167 2.305.233.195.016.398.028.596.042.633.046 1.28.084 1.942.114.241.011.481.022.727.031.862.029 1.74.05 2.65.05s1.788-.021 2.65-.05c.245-.009.485-.02.727-.031.662-.03 1.309-.068 1.942-.114.198-.015.4-.026.596-.042a60.436 60.436 0 0 0 2.305-.233c.156-.019.303-.042.457-.062a53.94 53.94 0 0 0 2.363-.36 45.634 45.634 0 0 0 1.735-.341c.088-.019.182-.036.269-.055a38.777 38.777 0 0 0 1.823-.458c.163-.045.319-.092.478-.138a32.87 32.87 0 0 0 1.279-.401c.147-.05.297-.098.44-.149a26.392 26.392 0 0 0 1.485-.573c.067-.028.127-.058.193-.087a21.377 21.377 0 0 0 1.518-.735c.327-.175.638-.354.932-.538.076-.047.158-.093.231-.14.351-.227.675-.459.975-.696.075-.06.142-.12.215-.18.13-.108.267-.215.387-.324zM27.5 2c13.555 0 23 3.952 23 7.5s-9.445 7.5-23 7.5-23-3.952-23-7.5S13.945 2 27.5 2zm23 43.703a1.02 1.02 0 0 0-.032.135C49.901 49.297 40.536 53 27.5 53S5.099 49.297 4.532 45.838a1.09 1.09 0 0 0-.032-.131v-8.414c.028.026.063.051.092.077.218.192.44.383.69.567C9.049 40.786 16.582 43 27.5 43c10.872 0 18.386-2.196 22.169-5.028.302-.22.574-.447.83-.678l.001-.001v8.41z"/>
    </symbol>

    <symbol id="icon-star" viewBox="0 0 55.867 55.867">
      <path fill="currentColor" d="M11.287 54.548a.997.997 0 0 1-.985-1.169l3.091-18.018L.302 22.602a1.001 1.001 0 0 1 .555-1.705l18.09-2.629 8.091-16.393a.996.996 0 1 1 1.792 0l8.09 16.393 18.091 2.629a1.002 1.002 0 0 1 .555 1.705L42.475 35.363l3.09 18.017c.064.375-.09.754-.397.978a.993.993 0 0 1-1.054.076l-16.18-8.506-16.182 8.506a1.008 1.008 0 0 1-.465.114zM3.149 22.584l12.016 11.713a1 1 0 0 1 .287.885L12.615 51.72l14.854-7.808a.996.996 0 0 1 .931 0l14.852 7.808-2.836-16.538a1 1 0 0 1 .287-.885l12.016-11.713-16.605-2.413a1 1 0 0 1-.753-.547L27.934 4.578l-7.427 15.047a1 1 0 0 1-.753.547L3.149 22.584z"/>
    </symbol>

    <symbol id="icon-wifi" viewBox="0 0 59 59">
      <path fill="currentColor" d="M10.407 1.707A.999.999 0 1 0 8.993.293c-11.307 11.307-11.307 29.705 0 41.012a1 1 0 0 0 1.414-1.414C-.12 29.363-.12 12.234 10.407 1.707zM50.005.293a.999.999 0 1 0-1.414 1.414c5.092 5.091 7.896 11.871 7.896 19.092S53.683 34.8 48.591 39.891a.999.999 0 1 0 1.414 1.414c5.47-5.469 8.481-12.751 8.481-20.506S55.475 5.762 50.005.293z"/>
      <path fill="currentColor" d="M14.651 5.949a.999.999 0 1 0-1.414-1.414c-8.968 8.968-8.968 23.56 0 32.527a.997.997 0 0 0 1.414 0 .999.999 0 0 0 0-1.414c-8.188-8.188-8.188-21.51 0-29.699zM45.763 4.535a.999.999 0 1 0-1.414 1.414c8.188 8.188 8.188 21.511 0 29.699a.999.999 0 1 0 1.414 1.414c8.968-8.967 8.968-23.559 0-32.527z"/>
      <path fill="currentColor" d="M18.893 8.778a.999.999 0 0 0-1.414 0c-3.206 3.206-4.972 7.475-4.972 12.021s1.766 8.814 4.972 12.021a.997.997 0 0 0 1.414 0 .999.999 0 0 0 0-1.414c-5.849-5.849-5.849-15.364 0-21.213.39-.391.39-1.024 0-1.415zM41.521 8.778a.999.999 0 1 0-1.414 1.414c5.849 5.849 5.849 15.364 0 21.213a.999.999 0 1 0 1.414 1.414c3.206-3.206 4.972-7.475 4.972-12.021s-1.766-8.814-4.972-12.02zM29.499 14c-3.859 0-7 3.141-7 7 0 3.519 2.614 6.432 6 6.92V58a1 1 0 1 0 2 0V27.92c3.386-.488 6-3.401 6-6.92 0-3.859-3.14-7-7-7zm0 12c-2.757 0-5-2.243-5-5s2.243-5 5-5 5 2.243 5 5-2.243 5-5 5z"/>
    </symbol>

    <symbol id="icon-search" viewBox="0 0 52.966 52.966">
      <path fill="currentColor" d="M51.704 51.273L36.845 35.82c3.79-3.801 6.138-9.041 6.138-14.82 0-11.58-9.42-21-21-21s-21 9.42-21 21 9.42 21 21 21c5.083 0 9.748-1.817 13.384-4.832l14.895 15.491a.998.998 0 0 0 1.414.028 1 1 0 0 0 .028-1.414zM21.983 40c-10.477 0-19-8.523-19-19s8.523-19 19-19 19 8.523 19 19-8.524 19-19 19z"/>
    </symbol>
  </defs>
</svg>
